<?xml version="1.0" standalone="no"?>
<!DOCTYPE svg PUBLIC "-//W3C//DTD SVG 20010904//EN"
 "http://www.w3.org/TR/2001/REC-SVG-20010904/DTD/svg10.dtd">
<svg version="1.0" xmlns="http://www.w3.org/2000/svg"
 width="129.000000pt" height="123.000000pt" viewBox="0 0 129.000000 123.000000"
 preserveAspectRatio="xMidYMid meet">
<metadata>
Created by potrace 1.16, written by Peter Selinger 2001-2019
</metadata>
<g transform="translate(0.000000,123.000000) scale(0.100000,-0.100000)"
fill="#000000" stroke="none">
<path d="M1010 939 c-14 -6 -50 -34 -80 -63 -50 -49 -61 -55 -111 -60 -43 -6
-62 -14 -83 -35 -27 -28 -27 -28 -9 -59 18 -31 18 -31 -10 -60 -15 -15 -25
-31 -22 -34 10 -10 -69 -65 -104 -71 -27 -6 -39 -2 -63 18 -16 14 -33 25 -37
25 -5 0 -11 17 -15 38 -6 43 -28 67 -67 77 -24 6 -25 9 -19 51 4 24 4 44 0 44
-17 0 -94 -96 -117 -146 -118 -257 32 -543 311 -595 121 -22 270 27 356 117
25 26 37 44 28 41 -11 -4 -21 0 -28 12 -14 26 -65 43 -96 31 -21 -8 -30 -4
-63 29 -25 25 -44 57 -54 89 -14 48 -13 52 7 78 25 33 54 61 95 92 30 23 31
23 62 5 l31 -18 23 29 c23 28 35 67 35 110 0 13 21 42 51 71 62 61 79 92 79
143 0 52 -36 66 -100 41z m74 -7 c6 -9 -32 -48 -74 -75 -13 -10 -21 -17 -16
-17 5 0 1 -9 -10 -21 -15 -16 -16 -22 -5 -29 10 -6 2 -14 -30 -30 -24 -12 -65
-42 -91 -67 -33 -33 -51 -44 -64 -39 -11 4 -26 -2 -44 -19 -22 -21 -29 -23
-38 -12 -9 11 -5 20 17 41 l29 28 -19 32 c-19 32 -19 33 1 51 11 10 46 22 77
27 52 8 64 15 114 64 51 50 88 71 131 73 9 1 19 -3 22 -7z"/>
</g>
</svg>
