<?xml version="1.0" standalone="no"?>
<!DOCTYPE svg PUBLIC "-//W3C//DTD SVG 20010904//EN"
 "http://www.w3.org/TR/2001/REC-SVG-20010904/DTD/svg10.dtd">
<svg version="1.0" xmlns="http://www.w3.org/2000/svg"
 width="497.000000pt" height="502.000000pt" viewBox="0 0 497.000000 502.000000"
 preserveAspectRatio="xMidYMid meet">

<g transform="translate(0.000000,502.000000) scale(0.100000,-0.100000)"
fill="#000000" stroke="none">
<path d="M2154 4824 c-19 -19 -34 -40 -34 -45 0 -5 -11 -11 -24 -15 -38 -9
-54 -34 -77 -120 -17 -62 -22 -109 -23 -219 -1 -126 3 -153 32 -274 29 -118
33 -146 29 -230 -7 -136 -14 -165 -45 -184 -15 -9 -65 -47 -111 -86 -65 -54
-94 -72 -133 -80 -76 -17 -97 -14 -135 19 -20 18 -45 30 -61 30 -18 0 -56 22
-112 64 -100 75 -158 130 -298 283 -82 90 -115 118 -165 142 -78 38 -229 75
-281 68 -80 -11 -131 -98 -131 -227 0 -67 9 -102 88 -344 72 -218 103 -298
168 -425 52 -102 82 -174 88 -209 6 -41 16 -60 44 -88 19 -19 41 -35 49 -33 7
1 36 1 65 0 62 -1 80 -16 125 -106 44 -86 73 -122 134 -161 84 -54 117 -120
88 -177 -9 -17 -17 -59 -18 -93 -1 -34 -8 -69 -15 -78 -7 -9 -11 -22 -8 -31 4
-8 -2 -34 -13 -57 -11 -26 -15 -45 -9 -49 6 -4 6 -16 -1 -34 -6 -16 -9 -34 -6
-41 3 -8 1 -16 -4 -19 -20 -13 -9 -27 15 -21 26 7 30 -3 25 -61 -1 -13 4 -23
10 -23 8 0 8 -6 0 -21 -14 -25 -9 -31 24 -33 17 0 25 -6 23 -16 -1 -11 6 -14
26 -13 28 2 28 2 12 -23 -13 -20 -14 -29 -5 -39 10 -12 5 -19 -25 -36 -33 -20
-36 -24 -21 -34 14 -11 13 -14 -14 -25 -38 -16 -38 -30 0 -30 44 0 37 -15 -20
-39 -55 -24 -67 -51 -22 -52 22 0 13 -7 -45 -37 -40 -20 -73 -40 -73 -45 0 -6
27 -7 63 -3 l62 6 -42 -38 c-52 -46 -56 -64 -10 -55 31 6 32 6 15 -14 -22 -25
-23 -44 -2 -36 14 5 15 3 5 -15 -15 -28 -14 -32 5 -32 15 0 15 -2 -1 -26 -20
-32 -13 -41 20 -26 50 23 49 11 -5 -43 -58 -59 -55 -68 13 -34 l42 22 -19 -21
c-21 -24 -15 -58 9 -48 53 21 50 22 32 -4 -25 -36 -22 -52 9 -44 l26 7 -16
-32 c-17 -33 -10 -39 25 -21 24 14 24 8 -3 -40 -25 -43 -19 -63 12 -35 19 18
20 17 22 -1 0 -10 1 -27 0 -37 -2 -19 11 -22 39 -7 21 12 26 -3 10 -30 -14
-21 -3 -32 20 -19 27 14 32 7 18 -25 -15 -32 -8 -41 20 -27 17 10 20 9 15 -4
-8 -20 13 -19 61 1 20 8 35 11 34 7 -26 -58 -41 -105 -36 -109 3 -4 24 8 45
25 47 36 52 38 52 11 0 -23 15 -25 50 -5 39 22 42 18 15 -25 -38 -60 -32 -79
12 -38 13 12 23 16 23 10 0 -18 18 -15 50 8 20 14 37 19 54 14 29 -7 32 -14
14 -32 -24 -24 2 -23 52 3 60 30 71 29 35 -5 -36 -34 -33 -64 5 -40 9 6 17 5
21 -2 6 -9 12 -8 25 3 14 10 13 6 -4 -18 -15 -21 -19 -34 -11 -38 6 -4 16 -2
22 4 21 21 28 11 11 -15 -12 -17 -14 -28 -7 -32 6 -4 13 -16 15 -27 2 -11 10
-19 17 -17 8 2 23 -6 35 -16 39 -35 56 -40 87 -25 16 8 32 20 36 26 14 21 57
41 61 28 5 -15 29 -14 35 2 3 9 8 9 21 -2 20 -17 27 -10 48 47 7 17 18 32 25
32 8 0 16 14 20 30 l6 31 24 -23 c18 -17 26 -19 32 -10 4 7 14 10 23 7 19 -8
43 28 52 78 4 22 13 37 21 37 14 0 21 36 17 97 0 16 6 25 23 29 17 4 25 14 27
35 l3 29 49 -35 c33 -23 52 -31 57 -24 5 8 12 8 26 0 11 -5 23 -8 26 -4 8 8
71 -22 87 -42 16 -19 30 -19 30 0 0 11 7 14 23 11 58 -13 72 -11 69 7 -3 15 1
17 17 13 12 -3 30 -9 41 -12 29 -8 25 20 -5 36 -39 21 -30 28 21 17 30 -7 48
-7 52 -1 4 6 23 17 43 27 42 19 73 52 64 66 -3 6 1 11 10 11 25 0 31 31 9 47
-18 13 -16 14 16 11 30 -2 35 0 38 19 2 16 -5 26 -27 37 -40 21 -51 39 -15 26
21 -9 29 -7 40 7 19 25 17 41 -5 48 -11 3 -25 13 -32 21 -10 13 -7 14 29 8 49
-8 59 11 15 26 -70 25 -70 27 -4 36 36 5 66 15 69 22 2 7 -5 12 -17 12 -36 0
-23 17 19 24 45 7 54 26 13 27 -26 0 -25 2 15 22 46 23 50 32 27 57 -14 16
-13 18 15 30 39 16 36 43 -5 50 -29 5 -29 6 20 24 82 31 82 37 1 51 l-39 7 41
24 c23 14 42 29 42 34 0 17 -32 40 -56 40 -34 0 -30 15 8 26 35 10 50 34 21
34 -14 0 -11 6 15 26 35 28 35 45 -1 37 -18 -5 -20 -3 -9 8 17 19 15 29 -7 29
-36 0 -31 18 9 34 46 18 52 36 13 36 -34 0 -24 10 18 19 43 9 50 31 11 31 -25
0 -29 3 -25 20 3 13 0 22 -11 25 -55 17 -53 15 -33 29 21 16 22 32 1 40 -13 5
-6 14 30 42 50 38 54 64 6 39 -39 -20 -40 -20 -33 15 4 20 2 30 -7 30 -9 0 -8
7 4 25 22 34 20 38 -14 33 -32 -5 -36 2 -19 34 6 12 7 23 2 27 -15 10 -13 49
3 62 24 19 16 31 -16 24 -23 -5 -30 -3 -30 9 0 12 -11 16 -42 17 -42 1 -42 1
-15 12 40 16 33 25 -23 33 -43 6 -48 9 -38 21 10 12 9 17 -6 25 -16 9 -17 11
0 29 15 17 16 19 0 25 -13 5 -14 9 -5 20 11 14 10 15 -13 18 -7 1 -13 10 -13
21 -1 11 -4 25 -8 32 -4 6 -5 18 -1 26 4 10 -6 16 -37 21 -57 9 -63 15 -43 37
16 18 16 19 -14 30 -28 9 -30 13 -19 30 10 16 9 21 -3 29 -13 8 -12 11 5 24
19 14 19 15 -17 30 -21 9 -38 20 -38 24 0 4 -21 18 -47 31 -34 17 -43 25 -33
31 12 7 12 13 0 36 -12 21 -12 28 -2 31 14 5 17 33 3 33 -5 0 -11 8 -15 18
-13 37 -49 88 -83 118 l-36 32 1 91 c0 50 -3 91 -8 91 -5 0 -10 35 -12 78 -2
51 -7 77 -15 77 -23 0 -35 23 -48 92 -13 63 -12 70 5 94 36 51 30 92 -25 159
-28 34 -58 88 -79 143 -19 48 -49 106 -67 128 -18 23 -44 67 -59 98 -37 77
-174 321 -225 401 -79 124 -145 170 -241 170 -52 0 -59 -3 -90 -36z m142 11
c61 -18 111 -59 157 -128 41 -61 214 -390 241 -457 9 -24 30 -58 46 -76 15
-18 44 -75 64 -127 25 -63 52 -112 82 -147 50 -58 53 -78 23 -120 -17 -23 -21
-37 -16 -72 4 -32 2 -48 -11 -62 -16 -18 -16 -19 1 -13 12 5 20 1 23 -11 3 -9
10 -27 16 -39 6 -11 7 -26 4 -32 -5 -7 2 -11 18 -11 25 0 26 -3 28 -62 0 -35
1 -69 1 -75 -1 -7 5 -13 12 -13 10 0 13 -20 13 -80 l-1 -79 44 -40 c36 -33 40
-40 24 -41 -17 0 -16 -4 12 -29 17 -16 29 -32 26 -35 -3 -3 0 -12 6 -20 9 -10
9 -16 1 -21 -8 -5 -7 -14 4 -30 16 -24 10 -36 -24 -47 -11 -4 -7 -9 13 -18 15
-7 27 -16 27 -20 0 -3 -12 -11 -27 -16 -24 -8 -20 -10 29 -10 41 0 62 -5 77
-18 28 -25 26 -34 -6 -43 l-28 -6 33 -14 33 -13 -28 -24 -28 -24 48 -7 48 -7
-21 -23 -21 -22 21 -6 c14 -3 19 -10 15 -17 -6 -9 3 -10 34 -5 35 6 40 4 35
-9 -4 -11 -1 -16 11 -16 17 0 17 -1 0 -20 -14 -15 -15 -20 -4 -20 9 -1 5 -8
-10 -20 -23 -20 -23 -20 -2 -20 12 0 19 -4 16 -10 -4 -6 5 -10 19 -10 14 0 26
-4 26 -10 0 -5 -4 -10 -10 -10 -18 0 -10 -19 11 -25 21 -7 21 -8 -5 -24 -30
-20 -25 -31 16 -31 30 0 38 -17 13 -26 -29 -11 -15 -22 37 -29 l52 -7 -29 -26
-30 -25 33 6 c18 4 32 2 32 -3 0 -6 -4 -10 -10 -10 -5 0 -10 -4 -10 -10 0 -5
7 -7 15 -4 20 8 19 -5 -2 -28 -15 -17 -15 -18 10 -18 33 0 33 -5 1 -47 l-26
-34 38 7 37 7 -22 -31 c-12 -17 -26 -34 -31 -37 -6 -3 -14 -15 -20 -25 -10
-18 -9 -18 26 -4 45 19 53 13 18 -15 -15 -11 -21 -21 -14 -21 7 0 10 -7 7 -15
-5 -11 0 -13 23 -8 38 7 39 -9 3 -35 l-28 -20 48 -7 c50 -8 56 -15 32 -35 -12
-10 -13 -15 -4 -21 8 -5 5 -10 -10 -18 -27 -15 -27 -29 2 -33 21 -3 20 -4 -10
-22 -38 -23 -34 -36 10 -36 l32 0 -23 -18 c-25 -19 -20 -32 11 -32 31 0 11
-14 -36 -25 -38 -10 -53 -28 -27 -31 6 -1 16 -2 23 -3 6 -1 -9 -13 -35 -27
-27 -13 -48 -26 -48 -28 0 -2 22 -1 49 2 72 7 71 -13 -2 -29 l-62 -14 55 -5
55 -5 -62 -33 c-35 -18 -63 -33 -63 -35 0 -1 30 -1 67 1 74 3 72 -11 -2 -24
-55 -9 -62 -15 -34 -29 22 -12 20 -14 -39 -25 -34 -7 -62 -17 -62 -21 0 -5 24
-9 53 -10 l52 -1 -47 -21 c-46 -20 -62 -37 -35 -37 6 0 37 7 67 15 63 17 90
19 90 6 0 -10 -87 -49 -150 -67 l-45 -12 40 -2 40 -2 -35 -10 -35 -11 35 -12
35 -12 -47 -7 c-27 -4 -48 -11 -48 -17 0 -5 5 -9 11 -9 6 0 9 -6 6 -14 -3 -8
1 -20 9 -27 23 -19 9 -21 -31 -5 -48 21 -52 20 -30 -4 24 -26 15 -25 -48 6
l-52 26 34 -36 c26 -27 31 -36 18 -36 -28 0 -19 -14 24 -38 22 -13 39 -25 37
-27 -2 -3 -28 2 -58 10 -30 8 -57 15 -59 15 -3 0 8 -14 24 -30 33 -34 29 -36
-39 -15 l-49 15 19 -22 c10 -12 28 -30 39 -40 25 -21 15 -22 -55 -3 -30 8 -56
13 -58 11 -2 -2 17 -19 42 -37 25 -18 46 -34 46 -37 0 -2 -16 -1 -36 3 l-37 6
29 -26 29 -26 -29 6 -29 6 28 -37 c31 -41 34 -39 -37 -17 -14 4 -19 2 -15 -4
4 -6 -7 -16 -25 -22 -27 -10 -35 -8 -53 9 -12 11 -24 17 -28 14 -3 -3 -19 4
-34 16 -24 19 -28 20 -31 6 -3 -14 -8 -14 -43 6 -21 12 -42 19 -45 15 -4 -3
-19 0 -35 9 -16 8 -30 12 -30 9 -1 -3 -2 -11 -3 -17 -1 -7 -7 -12 -14 -11 -7
2 -12 -4 -12 -12 0 -13 -4 -14 -21 -4 -23 12 -24 5 -3 -46 7 -18 6 -18 -9 -6
-16 13 -16 11 -2 -25 l16 -39 -20 23 c-25 29 -33 28 -21 -4 16 -40 11 -51 -11
-25 -23 28 -36 22 -19 -9 19 -36 5 -33 -29 5 -17 20 -31 34 -31 33 0 -2 11
-25 25 -52 14 -27 25 -59 25 -70 -1 -18 -4 -17 -28 12 -30 36 -48 43 -32 11
20 -36 4 -32 -30 8 -19 22 -29 29 -25 18 3 -11 9 -34 12 -52 5 -28 3 -31 -14
-27 -17 5 -19 1 -15 -26 4 -30 3 -32 -18 -25 -20 6 -22 4 -18 -19 6 -30 1 -32
-24 -9 -17 15 -18 15 -18 -7 0 -23 0 -23 -15 -4 -8 11 -15 14 -15 7 0 -23 -20
-14 -21 10 l0 22 -16 -23 c-25 -36 -34 -26 -27 31 l6 52 -27 -30 c-25 -28 -26
-23 -8 22 5 12 3 14 -7 8 -10 -6 -12 -4 -7 9 5 11 3 15 -5 10 -8 -5 -9 -1 -4
11 6 17 5 18 -11 3 -41 -34 -46 -30 -14 12 58 75 59 76 27 56 -20 -13 -27 -14
-24 -5 20 49 20 48 -4 42 -13 -4 -42 -19 -65 -35 -65 -44 -61 -33 16 40 39 37
71 75 71 85 0 16 -2 16 -37 1 -21 -9 -45 -18 -53 -21 -8 -3 3 14 26 38 22 24
47 53 55 63 14 19 13 19 -18 3 -51 -27 -51 -20 -3 23 45 39 33 43 -25 8 -46
-27 -54 -21 -17 13 38 35 37 44 -2 29 -15 -5 -32 -8 -37 -5 -5 4 -17 1 -26 -5
-16 -10 -15 -11 5 -7 12 3 20 1 16 -4 -3 -5 -11 -9 -18 -9 -17 0 -124 -69
-107 -70 8 0 39 14 70 31 34 20 50 25 42 15 -8 -10 -41 -31 -73 -47 -32 -16
-58 -31 -58 -33 0 -7 75 12 115 28 l40 17 -60 -55 c-33 -30 -57 -57 -53 -62 5
-4 16 0 25 8 10 9 37 28 61 42 37 23 42 24 33 8 -6 -11 -38 -44 -72 -74 -34
-30 -60 -59 -58 -66 2 -6 31 10 63 35 68 51 136 88 136 74 0 -5 -32 -38 -70
-73 -69 -62 -130 -98 -130 -78 0 5 -7 10 -15 10 -8 0 -15 5 -15 10 0 16 -20
12 -47 -10 -30 -24 -45 -26 -37 -5 7 18 -7 20 -24 3 -17 -17 -15 -3 4 33 21
42 11 47 -36 15 -50 -33 -64 -33 -56 -1 8 32 -6 32 -50 -1 -38 -29 -42 -22
-17 31 9 19 14 37 11 40 -3 3 -21 -2 -41 -10 -40 -17 -46 -12 -20 17 20 22 3
24 -37 3 -34 -18 -38 -9 -15 35 17 33 14 36 -17 19 -28 -15 -32 -6 -13 30 l16
32 -27 -7 c-26 -7 -26 -6 13 47 36 51 36 53 11 36 -35 -22 -35 -12 -3 35 35
52 31 55 -17 16 l-43 -33 28 48 c15 26 25 47 22 47 -3 0 -22 -11 -42 -25 -20
-13 -39 -23 -41 -21 -2 2 6 23 18 46 l22 42 -35 -26 c-18 -14 -37 -26 -40 -26
-3 0 6 21 21 47 l26 47 -38 -23 -38 -24 16 31 c23 44 20 46 -18 23 -52 -33
-54 -25 -6 24 24 25 41 45 38 45 -4 0 -27 -9 -53 -20 -63 -27 -68 -26 -44 15
22 37 20 42 -12 25 -21 -12 -26 -1 -7 18 10 10 10 15 -2 22 -12 8 -8 17 25 51
l40 41 -33 -17 c-52 -26 -48 -12 10 35 l53 42 -37 -4 c-49 -5 -48 4 1 27 22
10 50 29 63 43 l23 25 -40 -6 -40 -6 40 34 40 35 -32 0 c-39 0 -41 5 -10 31
21 18 21 18 2 19 -18 1 -17 3 8 21 26 20 27 23 12 39 -15 16 -14 19 7 36 13
11 24 27 25 37 1 15 -4 17 -23 13 -30 -8 -30 1 -1 32 l22 25 -22 -12 c-45 -23
-46 -10 -3 29 l45 41 -43 -21 c-49 -24 -62 -22 -32 5 30 27 24 38 -11 20 -35
-19 -45 -15 -31 12 5 10 8 34 7 53 -1 25 6 45 24 70 l26 34 -37 -28 c-21 -16
-38 -27 -38 -25 0 2 9 28 20 57 11 30 16 51 10 47 -16 -10 -12 2 16 48 l26 42
-37 -35 c-33 -30 -36 -32 -25 -10 7 14 24 41 38 60 14 19 19 29 12 23 -17 -15
-34 -17 -25 -3 3 6 2 10 -4 10 -6 0 -7 7 -4 17 4 10 2 14 -4 10 -19 -12 -6 70
16 102 17 24 30 31 55 31 19 0 45 9 60 21 21 17 27 18 32 6 4 -10 20 1 56 39
28 30 56 54 62 54 7 0 27 16 46 35 41 42 78 46 116 10 15 -14 33 -25 40 -25 7
0 25 -16 40 -36 15 -19 40 -42 55 -50 18 -9 32 -26 37 -47 8 -29 10 -25 20 48
7 44 24 119 38 167 28 90 27 117 -5 125 -17 4 -19 12 -15 61 5 55 4 56 -12 35
-23 -32 -51 -29 -69 7 -8 16 -29 37 -45 45 -16 8 -32 26 -36 40 -10 39 -28 48
-49 25 -10 -11 -30 -20 -44 -20 -33 0 -101 -31 -123 -56 -21 -25 -51 -94 -40
-94 4 0 22 20 39 44 18 25 43 52 58 62 24 16 28 16 42 1 14 -14 11 -19 -30
-59 -45 -44 -75 -113 -63 -144 6 -14 -42 -69 -52 -60 -3 3 -12 0 -20 -7 -12
-9 -16 -9 -19 0 -2 7 -11 9 -19 6 -9 -3 -14 2 -14 16 0 18 -4 20 -25 15 -23
-6 -25 -3 -25 26 l0 32 -36 -32 c-60 -52 -69 -41 -67 75 1 55 -3 107 -8 117
-12 23 7 69 65 157 36 55 43 74 44 116 0 28 -4 65 -10 83 -9 29 -6 37 17 68
14 19 37 59 50 89 24 53 26 55 65 55 73 0 220 76 319 165 l40 37 138 4 138 4
56 -35 c59 -36 79 -42 79 -25 0 14 -46 60 -59 60 -6 0 -24 26 -40 58 -16 32
-50 79 -76 104 -41 41 -47 53 -57 113 -10 62 -10 69 7 81 10 8 31 14 47 14 21
0 31 8 43 31 21 39 45 165 45 232 0 60 11 83 34 74 17 -7 20 -13 30 -59 4 -15
26 -50 51 -78 25 -28 45 -56 45 -63 3 -118 65 -310 106 -329 29 -14 71 11 80
47 9 35 17 31 31 -12 8 -26 8 -40 1 -44 -7 -4 -3 -11 9 -18 11 -5 23 -7 27 -3
4 3 12 0 17 -8 12 -16 10 -9 -16 89 -17 61 -35 89 -35 52 0 -12 -4 -19 -10
-16 -5 3 -10 36 -11 73 0 70 -17 63 -18 -8 -1 -37 -16 -69 -26 -58 -10 10 -24
78 -25 116 0 19 -5 32 -12 32 -9 0 -13 20 -13 68 0 63 -3 74 -39 127 -21 32
-59 81 -85 108 -25 27 -57 69 -71 92 -112 191 -110 190 -207 180 -37 -4 -81
-14 -96 -22 -50 -25 -105 -188 -92 -270 4 -21 20 -81 36 -134 39 -131 57 -211
65 -299 3 -41 13 -95 21 -119 8 -24 11 -47 6 -52 -4 -4 -27 -5 -50 -2 l-43 6
0 98 c0 70 -8 134 -26 217 -34 156 -41 291 -20 407 25 143 33 165 66 177 16 5
38 25 49 44 12 19 36 41 53 49 41 18 35 18 94 0z m-1451 -694 c125 -32 162
-56 265 -165 172 -182 247 -250 348 -316 56 -36 103 -73 107 -82 5 -14 -6 -50
-21 -67 -2 -3 -20 14 -39 36 -19 23 -59 55 -87 71 -61 35 -132 102 -155 146
-20 38 -184 214 -221 237 -28 18 -196 83 -243 94 -15 4 -41 0 -62 -9 -40 -16
-50 -39 -45 -102 3 -37 6 -40 73 -74 64 -32 72 -40 98 -93 19 -39 40 -65 65
-81 44 -28 60 -46 96 -108 35 -62 75 -76 175 -60 134 23 146 19 204 -73 22
-34 25 -49 21 -100 -11 -153 -11 -150 14 -153 16 -3 21 -9 18 -20 -18 -60 -18
-72 -2 -66 25 10 19 -10 -14 -41 l-29 -28 -67 23 c-75 25 -84 21 -84 -41 0
-20 -6 -42 -14 -48 -7 -6 -16 -24 -19 -39 -3 -15 -15 -49 -26 -75 -19 -44 -23
-48 -48 -43 -16 3 -56 8 -90 11 -38 4 -63 12 -63 19 0 6 -8 16 -19 23 -12 8
-20 28 -24 65 -5 38 -28 97 -81 203 -47 96 -109 250 -172 425 -89 253 -97 281
-98 350 0 59 5 85 23 123 38 79 87 92 216 58z m1093 -1307 c27 -19 28 -34 1
-68 -23 -29 -60 -34 -83 -10 -19 18 -21 65 -4 82 17 17 59 15 86 -4z"/>
<path d="M2320 4013 c0 -12 4 -24 9 -27 5 -4 12 -24 16 -46 4 -22 11 -38 16
-35 4 3 11 -7 15 -22 10 -47 11 -49 22 -23 l9 25 15 -35 c8 -19 18 -52 22 -72
4 -21 11 -38 16 -38 6 0 10 -14 10 -31 l0 -31 20 23 c10 13 19 18 20 11 0 -10
5 -10 23 -1 12 7 23 12 25 11 1 -1 2 0 2 3 0 3 0 12 0 21 0 8 -4 12 -10 9 -6
-4 -10 6 -10 22 l-1 28 -14 -25 c-13 -24 -14 -24 -20 -5 -4 11 -10 29 -15 40
-4 11 -14 54 -21 95 l-14 75 -5 -50 c-6 -47 -6 -48 -14 -20 -4 17 -14 44 -22
60 l-14 30 0 -32 c0 -18 -4 -33 -10 -33 -5 0 -10 10 -10 23 0 31 -15 53 -25
37 -6 -9 -12 -6 -21 11 -13 24 -13 24 -14 2z"/>
<path d="M2681 3863 c1 -16 5 -41 9 -58 7 -29 8 -29 9 9 1 31 3 36 15 27 11
-9 15 -8 20 4 3 9 10 13 16 10 5 -3 10 0 10 8 0 7 -6 14 -13 14 -7 0 -25 3
-40 7 -25 6 -27 4 -26 -21z"/>
<path d="M2736 3730 c-31 -43 -39 -49 -56 -40 -33 18 -56 11 -89 -25 -17 -19
-37 -36 -44 -36 -27 -3 -32 -4 -34 -11 -6 -18 -2 -28 12 -28 8 0 15 -4 15 -8
0 -10 88 -42 118 -42 24 0 28 -10 10 -28 -9 -9 -2 -12 33 -12 28 0 39 -3 31
-9 -15 -9 28 -21 77 -21 24 -1 25 -2 8 -14 -17 -13 -16 -15 12 -21 33 -7 42
-25 14 -25 -11 -1 -3 -9 19 -20 20 -11 40 -24 43 -30 7 -11 58 -14 68 -4 3 4
1 16 -5 28 -7 11 -13 23 -14 26 -11 43 -29 70 -45 70 -10 0 -19 7 -19 15 0 8
-5 15 -11 15 -6 0 -8 7 -5 17 4 10 -1 23 -14 35 -11 11 -20 32 -20 48 0 23 -5
30 -20 30 -11 0 -20 5 -20 10 0 6 -9 10 -20 10 -23 0 -24 7 -9 69 5 24 8 45 6
48 -3 2 -21 -19 -41 -47z"/>
<path d="M2185 3570 c-16 -4 -48 -8 -70 -9 -29 -1 -44 -7 -53 -21 -11 -18 -19
-20 -62 -14 -36 5 -50 3 -50 -5 0 -7 -15 -18 -33 -26 -19 -8 -39 -20 -45 -28
-7 -8 -32 -22 -57 -32 -25 -9 -45 -22 -45 -29 0 -7 -11 -18 -24 -24 -18 -8
-27 -22 -31 -49 -4 -21 -14 -54 -22 -73 -23 -50 -21 -90 4 -115 14 -15 15 -22
4 -59 -25 -84 -26 -92 -9 -78 9 7 19 24 22 38 4 14 20 43 36 65 16 22 31 53
35 69 9 42 39 63 98 68 49 4 56 1 125 -48 76 -53 123 -109 142 -166 9 -25 17
-34 34 -34 29 0 49 -16 75 -60 33 -55 26 -9 -9 60 -33 66 -38 95 -15 86 24 -9
18 4 -25 50 -23 25 -40 53 -40 66 1 32 32 95 77 153 32 42 48 53 98 69 33 11
54 21 48 23 -8 3 -13 21 -13 43 0 41 -2 43 -72 56 -21 3 -42 12 -49 20 -12 15
-27 16 -74 4z"/>
<path d="M2615 3400 c3 -5 25 -18 48 -28 47 -21 82 -55 73 -70 -3 -6 22 -39
56 -74 50 -50 63 -70 65 -97 1 -19 9 -41 17 -49 13 -13 17 -11 38 11 19 21 24
35 21 68 -4 46 -19 73 -39 65 -7 -3 -29 0 -48 5 -26 7 -42 21 -60 52 -36 61
-77 96 -130 112 -26 8 -44 10 -41 5z"/>
<path d="M2457 3280 c-15 -12 -40 -20 -61 -20 -45 0 -54 -18 -29 -56 14 -22
18 -50 19 -127 1 -54 5 -102 9 -105 4 -4 13 -22 21 -40 14 -34 57 -59 120 -69
42 -7 118 -80 239 -232 51 -64 100 -122 109 -130 26 -22 21 24 -6 51 -13 13
-27 30 -33 38 -48 76 -58 90 -66 90 -5 0 -9 5 -9 10 0 6 13 10 28 10 44 0 45
10 6 52 -19 21 -32 43 -29 49 4 5 4 27 0 49 -6 36 -8 38 -26 27 -17 -10 -22
-9 -30 6 -6 9 -19 17 -29 17 -21 0 -27 24 -10 35 6 3 10 21 10 39 0 18 5 47
11 65 9 25 17 31 39 31 34 0 51 -19 43 -48 -5 -19 -1 -22 25 -22 43 0 45 17
16 128 -2 6 -14 12 -27 12 -14 0 -36 9 -51 21 -16 12 -35 19 -46 16 -11 -3
-20 -2 -20 3 0 4 -18 17 -39 27 l-40 20 -3 -25 c-2 -19 -11 -28 -32 -33 -16
-5 -39 -18 -52 -30 -20 -18 -24 -19 -24 -6 0 9 4 18 10 22 5 3 7 12 4 20 -6
16 40 50 56 40 5 -3 10 -1 10 6 0 8 -12 10 -40 5 l-41 -6 16 30 c16 31 31 37
100 43 22 2 3 4 -41 5 -68 2 -86 -1 -107 -18z m169 -165 c33 -50 -11 -106 -71
-91 -32 8 -54 50 -38 74 12 20 51 42 75 42 10 0 25 -11 34 -25z"/>
<path d="M2563 3107 c-13 -5 -23 -16 -23 -24 0 -18 39 -17 46 2 10 24 0 33
-23 22z"/>
<path d="M3014 2972 c3 -18 1 -22 -10 -18 -12 5 -14 -2 -10 -37 3 -23 5 -50 5
-60 1 -10 5 -16 10 -13 5 3 7 15 4 26 -3 11 0 20 6 20 5 0 8 7 5 15 -5 11 -2
13 10 9 21 -8 20 3 -5 46 -15 26 -19 29 -15 12z"/>
<path d="M2420 2837 c0 -18 16 -80 35 -137 40 -118 36 -135 -30 -133 -49 1
-76 22 -114 86 -19 30 -46 62 -62 71 -28 17 -29 16 -35 -10 -4 -15 1 -50 11
-85 25 -83 17 -276 -14 -312 -12 -15 -15 -15 -38 3 -14 11 -32 20 -39 20 -22
0 -44 -43 -44 -86 0 -23 -11 -65 -23 -93 l-24 -50 -29 30 c-16 17 -38 36 -49
41 -19 11 -19 10 -5 -8 8 -10 29 -37 47 -58 23 -27 33 -50 33 -72 0 -48 -19
-53 -52 -14 -24 30 -28 31 -28 14 0 -12 16 -38 35 -59 20 -20 47 -60 61 -87
34 -67 96 -132 150 -159 65 -31 119 -23 186 28 68 50 98 63 154 63 34 0 66 11
131 45 47 25 99 45 115 45 25 0 46 15 113 83 74 73 84 88 95 137 12 53 11 61
-20 150 -40 119 -31 104 -125 211 -50 56 -106 107 -150 136 -38 25 -114 88
-167 139 -53 52 -102 94 -107 94 -6 0 -11 -15 -11 -33z m325 -396 c48 -22 71
-46 80 -83 9 -37 -6 -36 -27 1 -49 88 -169 99 -316 29 -35 -16 -66 -27 -69
-24 -10 10 37 54 81 76 55 27 193 28 251 1z m-305 -135 c0 -2 -7 -23 -16 -47
-14 -41 -13 -79 2 -131 4 -12 0 -18 -11 -18 -18 0 -80 122 -72 142 3 7 14 -7
25 -32 l20 -45 0 48 c0 32 5 54 17 67 16 18 35 26 35 16z m355 -26 c23 -25 13
-37 -20 -22 -32 15 -71 1 -80 -28 -12 -37 8 -45 70 -28 30 8 55 12 55 8 0 -4
-17 -20 -37 -36 -21 -15 -49 -41 -63 -57 -31 -36 -42 -27 -60 51 -11 50 -25
71 -37 58 -3 -3 2 -34 11 -70 9 -36 16 -70 16 -76 0 -7 -24 -10 -67 -8 -39 2
-67 7 -65 13 1 6 12 10 25 10 12 0 26 6 30 13 4 6 15 12 22 12 23 0 18 37 -7
54 -13 9 -43 16 -70 16 -92 0 -62 38 64 81 104 34 187 38 213 9z m-631 -172
c3 -18 19 -56 35 -84 23 -40 42 -57 85 -80 62 -32 70 -44 28 -44 -46 0 -110
54 -137 113 -26 59 -40 127 -27 127 6 0 13 -15 16 -32z m746 -84 c0 -10 -84
-42 -141 -53 -36 -8 -84 -30 -135 -62 -82 -52 -135 -72 -161 -62 -10 4 0 12
31 24 26 10 67 34 91 54 55 44 94 61 166 69 30 3 73 12 95 20 44 17 54 18 54
10z"/>
<path d="M2950 2834 c0 -5 9 -20 19 -33 10 -14 17 -31 14 -38 -6 -16 23 -63
38 -63 6 0 25 -10 42 -22 l32 -23 -24 33 c-12 18 -24 38 -25 45 -6 32 -18 57
-29 57 -6 0 -24 12 -39 27 -15 15 -28 23 -28 17z"/>
<path d="M3130 2613 c0 -5 15 -16 33 -25 35 -17 30 -22 -38 -33 l-40 -7 38
-15 c28 -11 35 -18 25 -24 -9 -6 -7 -9 8 -9 29 0 37 11 16 26 -16 11 -15 13 8
18 14 3 36 7 50 9 22 2 18 6 -30 32 -71 39 -70 38 -70 28z"/>
<path d="M1810 2584 c0 -3 11 -15 25 -26 14 -11 25 -24 25 -29 0 -16 57 -69
73 -69 8 0 20 -7 27 -15 7 -8 19 -15 26 -15 8 0 20 -11 26 -25 6 -14 14 -25
18 -25 7 0 20 35 20 55 0 19 -48 65 -68 65 -24 0 -34 10 -62 58 -18 29 -25 32
-65 32 -25 0 -45 -3 -45 -6z"/>
<path d="M3165 2470 c4 -6 -13 -10 -46 -10 -49 0 -51 -1 -33 -15 14 -10 15
-14 5 -15 -12 0 -12 -3 -3 -12 18 -18 15 -28 -10 -28 -17 0 -19 -3 -10 -12 9
-9 7 -14 -5 -23 -14 -11 -14 -12 1 -18 9 -4 16 -2 16 3 0 6 12 10 26 10 22 0
25 2 14 15 -11 13 -8 15 20 15 27 0 30 3 21 14 -9 11 -6 15 16 21 l28 7 -24
12 -23 13 32 7 c38 7 37 10 -3 20 -19 4 -26 3 -22 -4z"/>
<path d="M1625 2334 c-20 -25 -34 -48 -31 -51 4 -4 12 -1 18 5 19 19 33 14 16
-5 -8 -10 -19 -25 -23 -33 -7 -12 -5 -12 11 1 42 35 47 31 12 -10 -48 -56 -42
-78 14 -50 l40 20 -7 -20 c-12 -38 10 -21 31 25 16 34 18 44 7 40 -11 -5 -13
-1 -7 16 5 17 3 20 -10 15 -19 -8 -21 3 -3 23 6 8 2 6 -10 -4 -28 -23 -29 -13
-5 22 37 54 38 58 9 40 -32 -22 -44 -23 -27 -3 7 8 10 15 7 15 -2 0 -21 -20
-42 -46z"/>
<path d="M3166 2153 c-19 -3 -25 -7 -17 -12 8 -5 -12 -21 -56 -45 -45 -25 -59
-36 -40 -33 35 5 34 1 -5 -23 -60 -36 -4 -20 87 25 86 43 88 45 45 39 l-45 -6
30 23 c44 33 50 39 40 38 -6 -1 -23 -4 -39 -6z"/>
<path d="M1723 1989 c-54 -50 -55 -67 -3 -34 22 14 44 25 49 25 5 0 15 7 22
17 13 15 12 15 -8 5 -32 -18 -38 -15 -18 8 32 36 1 21 -42 -21z"/>
<path d="M1825 1975 c-56 -26 -69 -30 -60 -15 11 17 -5 11 -41 -16 -18 -14
-32 -29 -29 -33 9 -16 92 -10 130 8 l40 20 -35 -5 -35 -5 24 18 c36 26 67 52
61 52 -3 0 -27 -11 -55 -24z"/>
<path d="M3010 1982 c-35 -14 -62 -36 -59 -49 0 -4 -19 -15 -42 -25 l-44 -16
35 -4 35 -4 -30 -14 c-25 -11 -27 -14 -11 -18 14 -3 16 -6 6 -12 -19 -12 13
-42 35 -34 13 6 14 9 3 16 -10 7 -10 11 4 22 10 7 15 16 12 19 -4 3 9 14 29
23 19 9 33 22 31 29 -3 7 8 17 23 24 16 6 41 22 56 34 l29 22 -40 0 c-22 0
-54 -6 -72 -13z"/>
<path d="M3350 1967 c-8 -8 -43 -24 -77 -37 -35 -12 -63 -24 -63 -25 0 -2 30
0 68 2 77 6 76 -4 -3 -36 l-50 -20 65 1 c45 0 56 2 35 7 -29 6 -27 7 33 30 35
12 62 24 60 27 -2 2 -22 7 -44 12 l-39 8 45 21 c44 21 44 21 15 22 -17 1 -37
-5 -45 -12z"/>
<path d="M3373 1849 c11 -7 23 -7 35 0 14 9 11 10 -18 10 -29 0 -32 -1 -17
-10z"/>
<path d="M3300 1827 c-74 -27 -77 -34 -19 -41 45 -6 103 -25 76 -26 -18 0
-211 -31 -214 -34 -2 -2 21 -7 51 -10 29 -4 67 -11 82 -16 29 -8 28 -8 -8 -9
-20 -1 -49 -6 -65 -12 l-28 -11 40 -19 c22 -10 47 -18 55 -18 8 0 1 6 -17 12
-51 19 -50 27 6 27 28 0 68 7 89 16 l37 17 -45 10 -45 10 35 10 c97 25 99 37
10 61 -59 15 -60 13 10 39 13 5 13 5 0 6 -8 0 -31 -6 -50 -12z"/>
<path d="M1575 1820 c-3 -5 -2 -10 4 -10 5 0 13 5 16 10 3 6 2 10 -4 10 -5 0
-13 -4 -16 -10z"/>
<path d="M1882 1807 c-31 -19 -32 -20 -14 -33 17 -11 26 -11 60 3 28 11 39 20
35 30 -3 8 -14 13 -24 10 -10 -3 -19 -2 -21 2 -2 4 -18 -1 -36 -12z"/>
<path d="M2443 1783 c-13 -8 -23 -22 -23 -30 0 -8 -4 -11 -10 -8 -6 3 -7 -1
-4 -9 4 -11 0 -16 -10 -16 -9 0 -16 -7 -16 -15 0 -8 -6 -15 -14 -15 -9 0 -16
-17 -21 -50 -4 -27 -10 -50 -14 -50 -3 0 -5 -17 -3 -39 3 -28 0 -40 -12 -44
-10 -4 -16 -1 -16 7 0 26 -28 26 -34 0 -4 -14 -10 -22 -15 -19 -5 2 -12 -3
-15 -12 -6 -15 -8 -15 -16 -3 -8 13 -12 12 -24 -5 -15 -19 -15 -19 -16 14 0
30 -2 32 -16 20 -15 -12 -16 -11 -10 9 11 32 -8 28 -60 -14 -24 -20 -44 -33
-44 -29 0 5 16 38 36 73 27 50 31 62 16 51 -11 -8 -35 -25 -53 -38 -19 -13
-28 -18 -21 -11 22 25 13 32 -15 11 -31 -25 -39 -21 -23 10 11 20 10 21 -9 16
-21 -5 -29 7 -12 17 5 4 27 28 50 55 37 44 38 48 17 44 -20 -4 -25 0 -28 18
-2 14 -9 23 -18 22 -10 -2 -9 1 3 10 53 35 53 35 0 23 -29 -6 -60 -19 -70 -28
-16 -17 -16 -19 8 -44 20 -21 30 -25 59 -20 l35 5 -30 -26 c-16 -14 -31 -21
-33 -15 -2 7 -20 4 -49 -9 l-46 -19 18 26 17 27 -23 -17 c-29 -20 -46 -21 -29
-1 11 13 7 13 -34 1 -46 -14 -56 -10 -33 13 10 10 3 11 -33 5 -56 -9 -64 -14
-19 -14 l34 0 -25 -21 c-15 -13 -18 -19 -8 -16 9 3 33 9 53 13 36 6 37 6 25
-16 -11 -20 -10 -22 5 -16 13 4 16 2 11 -9 -5 -13 -1 -13 29 -1 38 16 47 8 14
-12 -31 -20 -16 -26 20 -8 45 24 48 20 12 -18 -39 -40 -34 -68 6 -36 39 31 41
14 3 -25 -26 -26 -31 -37 -22 -48 9 -10 4 -22 -20 -53 -18 -21 -23 -32 -13
-23 11 8 54 43 96 77 42 34 78 62 81 62 2 0 -17 -43 -44 -95 -26 -53 -48 -98
-48 -101 0 -3 23 22 51 56 28 33 53 59 55 57 3 -2 -3 -21 -12 -43 l-16 -39 34
39 c18 22 39 47 46 55 11 14 12 11 7 -19 -5 -33 -5 -34 9 -15 47 63 47 63 43
21 l-3 -39 23 29 c20 26 23 27 24 9 0 -11 3 -14 6 -7 2 6 11 12 19 12 8 0 14
9 14 19 0 10 7 21 15 25 8 3 15 12 15 21 0 8 4 15 9 15 16 0 18 -24 4 -58 -9
-21 -11 -49 -7 -80 6 -42 8 -103 4 -156 0 -11 -6 -29 -11 -40 -9 -18 -8 -18
10 3 12 13 21 17 21 10 0 -7 10 -3 25 11 14 13 25 19 25 14 1 -5 12 5 25 21
14 17 25 24 25 16 0 -11 3 -11 16 0 13 10 17 10 24 -1 6 -10 10 -7 15 13 8 31
17 34 35 12 7 -9 15 -13 18 -10 3 3 14 -3 25 -12 19 -17 19 -17 13 7 -6 22 -5
23 6 8 7 -9 18 -25 25 -35 8 -12 7 1 -3 37 -20 81 -18 86 21 51 36 -31 51 -39
40 -21 -6 10 7 14 35 11 16 -3 -17 25 -35 29 -5 1 -19 9 -29 18 -18 16 -18 16
-7 -8 9 -18 1 -13 -29 18 l-41 42 6 -37 6 -38 -21 35 -20 35 6 -40 6 -40 -27
30 c-19 22 -23 24 -16 8 17 -34 14 -45 -9 -31 -17 11 -22 10 -30 -2 -8 -12
-10 -10 -10 10 -1 25 -1 25 -17 -4 l-16 -30 -23 30 c-13 16 -24 36 -23 44 1 8
0 18 -1 23 -1 4 -3 10 -4 15 -1 4 -5 12 -9 19 -10 16 2 43 19 43 9 0 14 11 14
28 0 21 2 24 10 12 7 -11 10 -8 10 16 0 38 21 84 39 84 9 0 11 8 7 26 -4 15
-2 32 5 40 6 8 9 14 5 14 -4 0 1 11 10 25 9 14 12 25 8 25 -5 0 -2 5 6 10 13
9 13 10 0 10 -11 1 -10 4 4 15 26 20 7 18 -21 -2z"/>
<path d="M1535 1780 c-3 -5 -2 -10 4 -10 5 0 13 5 16 10 3 6 2 10 -4 10 -5 0
-13 -4 -16 -10z"/>
<path d="M1625 1739 c-4 -6 -5 -12 -2 -15 2 -3 7 2 10 11 7 17 1 20 -8 4z"/>
<path d="M2580 1746 c0 -2 12 -25 27 -52 21 -38 23 -46 8 -34 -19 16 -19 14 4
-32 14 -27 51 -39 51 -17 0 6 7 18 16 26 8 9 13 25 10 35 -4 16 -1 19 14 15
16 -4 19 0 18 19 -1 13 -8 24 -16 24 -7 0 -10 -5 -6 -12 5 -8 2 -9 -9 -5 -10
4 -24 10 -34 14 -11 4 -14 3 -9 -5 10 -17 2 -15 -39 8 -19 11 -35 18 -35 16z"/>
<path d="M1667 1713 c-10 -9 -9 -23 1 -23 5 0 9 7 9 15 0 17 -1 18 -10 8z"/>
<path d="M1703 1695 c0 -12 3 -12 16 -3 9 7 18 14 20 15 2 2 -5 3 -16 3 -11 0
-20 -7 -20 -15z"/>
<path d="M2856 1681 c-19 -7 -19 -8 0 -16 16 -7 12 -10 -21 -15 l-40 -5 30
-17 30 -17 -33 -1 c-20 0 -31 -4 -27 -10 12 -20 85 -50 117 -49 l33 1 -40 9
c-66 16 -66 29 0 30 l60 1 -45 16 -45 17 48 3 c58 4 61 17 5 27 -43 8 -43 8
-13 15 17 4 23 8 15 9 -8 1 -24 3 -35 6 -11 2 -29 1 -39 -4z"/>
<path d="M1675 1670 c-3 -5 -1 -10 4 -10 6 0 11 5 11 10 0 6 -2 10 -4 10 -3 0
-8 -4 -11 -10z"/>
<path d="M2577 1634 c-3 -4 -1 -16 5 -27 9 -17 8 -19 -7 -13 -11 4 -5 -8 16
-31 33 -38 69 -52 69 -27 0 7 -7 17 -16 22 -8 4 -25 25 -38 46 -12 20 -25 34
-29 30z"/>
<path d="M2300 1555 c0 -8 4 -15 10 -15 5 0 7 7 4 15 -4 8 -8 15 -10 15 -2 0
-4 -7 -4 -15z"/>
<path d="M2790 1546 c0 -2 7 -6 15 -10 8 -3 15 -1 15 4 0 6 -7 10 -15 10 -8 0
-15 -2 -15 -4z"/>
<path d="M2866 1521 c-3 -5 -25 -7 -49 -4 -31 3 -38 2 -27 -6 8 -6 11 -11 6
-11 -5 0 -1 -9 9 -20 17 -19 17 -20 0 -20 -15 0 -16 -3 -7 -12 18 -18 14 -31
-8 -25 -11 3 -20 1 -20 -4 0 -5 5 -9 10 -9 6 0 10 -5 10 -11 0 -7 -10 -9 -27
-4 -23 5 -19 1 17 -23 25 -16 59 -33 75 -36 29 -7 29 -7 10 9 -19 16 -18 16
20 11 l40 -5 -40 22 c-35 19 -37 22 -17 25 12 2 22 8 22 13 0 5 7 9 15 9 8 0
15 5 15 10 0 6 -4 10 -8 10 -5 0 -17 6 -27 14 -18 13 -18 14 8 9 35 -7 36 14
1 23 -19 5 -22 9 -12 15 7 5 23 9 35 9 12 0 25 5 28 10 4 6 -10 10 -34 10 -22
0 -42 -4 -45 -9z"/>
<path d="M703 3857 c15 -96 177 -475 230 -541 20 -25 30 -29 68 -28 34 2 53
-4 79 -23 19 -14 38 -25 42 -25 20 0 -15 40 -55 64 -27 15 -49 38 -57 56 -7
18 -37 49 -66 71 -68 50 -80 74 -100 196 -15 99 -54 213 -82 246 -8 9 -26 17
-40 17 -22 0 -24 -3 -19 -33z"/>
<path d="M1198 3473 c-25 -6 -23 -16 12 -53 17 -18 30 -34 30 -35 0 -2 -10 -5
-22 -7 -19 -2 -15 -7 26 -30 57 -33 71 -35 37 -7 -23 19 -23 20 -5 34 10 8 14
15 9 15 -6 0 -27 14 -48 31 -30 25 -35 34 -26 45 6 8 10 13 8 13 -2 -1 -12 -3
-21 -6z"/>
<path d="M1230 3311 c0 -5 7 -14 16 -19 12 -7 13 -11 5 -17 -9 -5 -9 -10 0
-21 9 -11 7 -14 -10 -14 -25 0 -27 -12 -6 -30 11 -10 13 -15 5 -20 -7 -5 1
-12 20 -19 49 -16 71 6 28 27 -21 10 -19 11 16 11 37 1 38 2 23 19 -10 10 -14
21 -11 25 3 3 -8 13 -24 21 -17 9 -37 23 -46 31 -9 9 -16 12 -16 6z"/>
<path d="M840 3291 c5 -11 15 -23 21 -27 6 -3 3 5 -6 20 -20 30 -30 35 -15 7z"/>
<path d="M930 3253 c0 -5 22 -22 50 -37 27 -15 52 -31 55 -37 10 -15 -19 -21
-48 -10 l-26 10 19 -32 c11 -18 21 -48 21 -67 2 -30 3 -31 6 -7 4 24 9 27 43
27 37 0 38 2 45 39 10 59 -10 94 -60 103 -22 4 -55 11 -72 14 -19 4 -33 3 -33
-3z"/>
<path d="M1156 3065 c-4 -20 -11 -33 -17 -30 -5 4 -9 1 -9 -4 0 -6 -9 -11 -19
-11 -36 0 -37 -44 -1 -46 8 -1 26 -5 40 -9 22 -7 23 -6 11 9 -12 14 -11 16 10
16 20 0 21 1 6 13 -15 11 -10 40 7 38 34 -5 37 0 14 28 -13 17 -26 30 -29 30
-4 1 -10 -15 -13 -34z"/>
<path d="M1884 2816 c-18 -14 -18 -15 -1 -22 22 -8 39 6 28 24 -6 9 -11 9 -27
-2z"/>
<path d="M3775 4132 c-71 -34 -136 -102 -154 -161 -14 -47 3 -102 37 -120 36
-19 91 -13 112 12 95 109 125 123 205 93 130 -50 150 -194 34 -254 -38 -20
-56 -22 -142 -20 -92 2 -98 1 -121 -22 -24 -25 -76 -167 -76 -207 0 -28 44
-79 75 -87 42 -11 94 18 113 62 l17 39 75 6 c160 11 265 86 305 218 57 185
-10 351 -173 431 -58 29 -78 33 -157 36 -82 3 -95 0 -150 -26z"/>
<path d="M3654 3296 c-103 -45 -71 -186 42 -186 39 0 84 51 84 95 0 49 -15 74
-55 91 -40 16 -32 16 -71 0z"/>
</g>
</svg>
